# xmcd
#
# Track frame offsets:
#	150
#	20676
#	51680
#	90252
#	108837
#	164895
#	189055
#	207253
#	240953
#	269726
#
# Disc length: 4411 seconds
#
# Revision: 0
# Processed by: cddbd v1.5.2PL0 Copyright (c) Steve Scherf et al.
# Submitted via: EasyCDDAExtractor 11.5.3.1
#
DISCID=8611390a
DTITLE=First Commandment Gospel Singers - Live in Toronto
DYEAR=1999
DGENRE=Gospel
TTITLE0=Down in my Heart
TTITLE1=You're Everything I Need
TTITLE2=On My Way Home
TTITLE3=When the Saints Go Marching in
TTITLE4=I Got Heaven on my Mind
TTITLE5=Stand by My Side
TTITLE6=Feel Alright
TTITLE7=I'm Glad (to be in Your Service One More Time)
TTITLE8=I'm so Greatful
TTITLE9=I've Got Shoes
EXTD=
EXTT0=
EXTT1=
EXTT2=
EXTT3=
EXTT4=
EXTT5=
EXTT6=
EXTT7=
EXTT8=
EXTT9=
PLAYORDER=
